<svg width="351" height="152" viewBox="0 0 351 152" fill="none" xmlns="http://www.w3.org/2000/svg">
<path d="M350.863 91.5267V144.067H337.353L337.285 144.048L350.105 99.8943L321.289 91.5267H350.863Z" fill="#32A5BE"/>
<path d="M318.342 91.6722L321.289 92.5266L350.105 100.894L337.285 145.048L335.457 151.35L285 136.701L299.649 86.2448L312.527 89.9837L318.342 91.6722Z" fill="#3ABAD6"/>
<path d="M319.04 104.522C316.548 104.522 314.528 102.337 314.528 99.6415V93.1258C314.528 92.2599 315.177 91.5578 315.978 91.5578C316.778 91.5578 317.428 92.2599 317.428 93.1258V99.6415C317.428 100.605 318.15 101.386 319.04 101.386C319.932 101.386 320.654 100.605 320.654 99.6415V78.8802C320.652 77.9178 319.931 77.1376 319.04 77.1361H318.428C317.537 77.1376 316.816 77.9178 316.815 78.8802H316.568C316.474 78.8802 316.042 78.8802 315.242 78.8802C314.441 78.8802 313.915 78.8802 313.915 78.8802C313.918 76.1867 315.937 74.0031 318.428 74H319.04C321.532 74.0031 323.551 76.1867 323.554 78.8802V99.6415C323.551 102.336 321.532 104.519 319.04 104.522Z" fill="#FFDE9E"/>
<path d="M328.114 108.074C327.251 107.476 326.072 107.688 325.475 108.548L314.864 123.767L307.376 117.63C306.568 116.965 305.372 117.085 304.708 117.893C304.043 118.701 304.16 119.894 304.972 120.556L314.047 127.994C314.388 128.272 314.813 128.423 315.249 128.423C315.334 128.423 315.421 128.418 315.509 128.406C316.032 128.332 316.502 128.047 316.806 127.613L328.588 110.711C329.185 109.852 328.973 108.673 328.114 108.074Z" fill="#72E191"/>
<path d="M320.593 93.3609L312.447 90L312.261 91.6402L319.873 94.8297L320.593 93.3609Z" fill="#3ABAD6"/>
<path d="M55.0322 32.16C60.8989 32.16 66.0455 33.3067 70.4722 35.6C74.9522 37.8933 78.3922 41.1733 80.7922 45.44C83.2455 49.6533 84.4722 54.56 84.4722 60.16C84.4722 65.76 83.2455 70.6667 80.7922 74.88C78.3922 79.04 74.9522 82.2667 70.4722 84.56C66.0455 86.8533 60.8989 88 55.0322 88H35.5122V32.16H55.0322ZM54.6322 78.48C60.4989 78.48 65.0322 76.88 68.2322 73.68C71.4322 70.48 73.0322 65.9733 73.0322 60.16C73.0322 54.3467 71.4322 49.8133 68.2322 46.56C65.0322 43.2533 60.4989 41.6 54.6322 41.6H46.7122V78.48H54.6322ZM112.536 88.72C108.269 88.72 104.429 87.7867 101.016 85.92C97.6026 84 94.9093 81.3067 92.9359 77.84C91.0159 74.3733 90.0559 70.3733 90.0559 65.84C90.0559 61.3067 91.0426 57.3067 93.0159 53.84C95.0426 50.3733 97.7893 47.7067 101.256 45.84C104.723 43.92 108.589 42.96 112.856 42.96C117.123 42.96 120.989 43.92 124.456 45.84C127.923 47.7067 130.643 50.3733 132.616 53.84C134.643 57.3067 135.656 61.3067 135.656 65.84C135.656 70.3733 134.616 74.3733 132.536 77.84C130.509 81.3067 127.736 84 124.216 85.92C120.749 87.7867 116.856 88.72 112.536 88.72ZM112.536 78.96C114.563 78.96 116.456 78.48 118.216 77.52C120.029 76.5067 121.469 75.0133 122.536 73.04C123.603 71.0667 124.136 68.6667 124.136 65.84C124.136 61.6267 123.016 58.4 120.776 56.16C118.589 53.8667 115.896 52.72 112.696 52.72C109.496 52.72 106.803 53.8667 104.616 56.16C102.483 58.4 101.416 61.6267 101.416 65.84C101.416 70.0533 102.456 73.3067 104.536 75.6C106.669 77.84 109.336 78.96 112.536 78.96ZM149.552 38.4C147.578 38.4 145.925 37.7867 144.592 36.56C143.312 35.28 142.672 33.7067 142.672 31.84C142.672 29.9733 143.312 28.4267 144.592 27.2C145.925 25.92 147.578 25.28 149.552 25.28C151.525 25.28 153.152 25.92 154.432 27.2C155.765 28.4267 156.432 29.9733 156.432 31.84C156.432 33.7067 155.765 35.28 154.432 36.56C153.152 37.7867 151.525 38.4 149.552 38.4ZM155.072 43.68V88H143.872V43.68H155.072ZM190.697 43.04C195.977 43.04 200.244 44.72 203.497 48.08C206.751 51.3867 208.377 56.0267 208.377 62V88H197.177V63.52C197.177 60 196.297 57.3067 194.537 55.44C192.777 53.52 190.377 52.56 187.337 52.56C184.244 52.56 181.791 53.52 179.977 55.44C178.217 57.3067 177.337 60 177.337 63.52V88H166.137V43.68H177.337V49.2C178.831 47.28 180.724 45.7867 183.017 44.72C185.364 43.6 187.924 43.04 190.697 43.04ZM236.388 42.96C239.694 42.96 242.601 43.6267 245.108 44.96C247.614 46.24 249.588 47.92 251.028 50V43.68H262.308V88.32C262.308 92.4267 261.481 96.08 259.828 99.28C258.174 102.533 255.694 105.093 252.388 106.96C249.081 108.88 245.081 109.84 240.388 109.84C234.094 109.84 228.921 108.373 224.868 105.44C220.868 102.507 218.601 98.5067 218.068 93.44H229.188C229.774 95.4667 231.028 97.0667 232.948 98.24C234.921 99.4667 237.294 100.08 240.068 100.08C243.321 100.08 245.961 99.0933 247.988 97.12C250.014 95.2 251.028 92.2667 251.028 88.32V81.44C249.588 83.52 247.588 85.2533 245.028 86.64C242.521 88.0267 239.641 88.72 236.388 88.72C232.654 88.72 229.241 87.76 226.148 85.84C223.054 83.92 220.601 81.2267 218.788 77.76C217.028 74.24 216.148 70.2133 216.148 65.68C216.148 61.2 217.028 57.2267 218.788 53.76C220.601 50.2933 223.028 47.6267 226.068 45.76C229.161 43.8933 232.601 42.96 236.388 42.96ZM251.028 65.84C251.028 63.12 250.494 60.8 249.428 58.88C248.361 56.9067 246.921 55.4133 245.108 54.4C243.294 53.3333 241.348 52.8 239.268 52.8C237.188 52.8 235.268 53.3067 233.508 54.32C231.748 55.3333 230.308 56.8267 229.188 58.8C228.121 60.72 227.588 63.0133 227.588 65.68C227.588 68.3467 228.121 70.6933 229.188 72.72C230.308 74.6933 231.748 76.2133 233.508 77.28C235.321 78.3467 237.241 78.88 239.268 78.88C241.348 78.88 243.294 78.3733 245.108 77.36C246.921 76.2933 248.361 74.8 249.428 72.88C250.494 70.9067 251.028 68.56 251.028 65.84ZM284.447 32.16V88H273.247V32.16H284.447ZM308.552 52.88V74.32C308.552 75.8133 308.899 76.9067 309.592 77.6C310.339 78.24 311.566 78.56 313.272 78.56H318.472V88H311.432C301.992 88 297.272 83.4133 297.272 74.24V52.88H291.992V43.68H297.272V32.72H308.552V43.68H318.472V52.88H308.552Z" fill="#3ABAD6"/>
</svg>
