<svg width="54" height="54" viewBox="0 0 54 54" fill="none" xmlns="http://www.w3.org/2000/svg">
<path d="M45.3143 54H8.68569C3.88904 54 0 50.111 0 45.3143V8.68569C0 3.88904 3.88904 0 8.68569 0H45.3143C50.111 0 54 3.88904 54 8.68569V45.3143C54 50.111 50.111 54 45.3143 54Z" fill="#3ABAD6"/>
<path d="M40.5633 25.1478H29.5522V14.1368C29.5522 12.9212 28.5657 11.9346 27.35 11.9346C26.1344 11.9346 25.1478 12.9212 25.1478 14.1368V25.1478H14.1368C12.9212 25.1478 11.9346 26.1344 11.9346 27.35C11.9346 28.5657 12.9212 29.5522 14.1368 29.5522H25.1478V40.5633C25.1478 41.7789 26.1344 42.7655 27.35 42.7655C28.5657 42.7655 29.5522 41.7789 29.5522 40.5633V29.5522H40.5633C41.7789 29.5522 42.7655 28.5657 42.7655 27.35C42.7655 26.1344 41.7789 25.1478 40.5633 25.1478Z" fill="white"/>
</svg>
