<svg width="99" height="99" viewBox="0 0 99 99" fill="none" xmlns="http://www.w3.org/2000/svg">
<circle cx="49.0642" cy="49.0642" r="49.0642" fill="#F3D66F"/>
<path d="M66.9035 24.6149V37.9387C66.9035 38.1317 66.8988 38.3243 66.8945 38.5169C66.886 38.9158 66.8638 39.3142 66.8289 39.7084C66.8204 39.8444 66.8067 39.9799 66.7893 40.1158C66.7321 40.6809 66.6537 41.2374 66.5527 41.7897C66.5174 41.9738 66.4824 42.1532 66.4428 42.333C66.4385 42.3722 66.43 42.4076 66.4211 42.4426C66.3857 42.6267 66.3418 42.8065 66.2983 42.9859C66.2809 43.0822 66.2544 43.1785 66.2327 43.2752C66.2106 43.3583 66.1888 43.4419 66.1628 43.525C66.0704 43.8842 65.9655 44.2349 65.8556 44.5852C65.8032 44.7518 65.7507 44.9138 65.6936 45.0804C65.689 45.0979 65.6804 45.1153 65.6762 45.1328C65.6233 45.2815 65.5709 45.4307 65.5185 45.5794C65.501 45.6233 65.4836 45.6668 65.4657 45.7153C65.4132 45.8555 65.3608 45.9957 65.3037 46.1359C65.2381 46.3068 65.1682 46.4734 65.0979 46.6401C65.0365 46.7892 64.9709 46.9379 64.9053 47.0871C64.8968 47.1135 64.8831 47.1352 64.8746 47.1612C64.8 47.3189 64.7301 47.477 64.6556 47.63C64.581 47.7919 64.5021 47.9543 64.4186 48.1166C64.2609 48.4363 64.0901 48.7563 63.9192 49.0674C63.8403 49.2076 63.7615 49.3478 63.6822 49.488C63.0077 50.6492 62.2585 51.7401 61.4437 52.7475C61.3338 52.892 61.2204 53.0322 61.102 53.1681C60.9396 53.365 60.773 53.5581 60.6068 53.7464C60.4576 53.913 60.3089 54.0792 60.1555 54.2416C59.7349 54.6929 59.3053 55.1224 58.8673 55.5256C58.7799 55.6133 58.6874 55.6922 58.5954 55.7753C58.4467 55.9112 58.2979 56.0425 58.1441 56.1695C58.0261 56.2747 57.9033 56.3753 57.7802 56.4763C57.4648 56.7345 57.1495 56.9842 56.8299 57.2165C56.6982 57.3175 56.5623 57.4138 56.4267 57.5058C56.2077 57.6635 55.9844 57.8127 55.7607 57.9571C55.638 58.0402 55.511 58.1191 55.3835 58.1936C54.9365 58.4698 54.4857 58.7238 54.0386 58.9428C53.9291 58.9995 53.8196 59.0523 53.7101 59.1047C53.6001 59.1572 53.4868 59.21 53.3683 59.2624C53.2234 59.328 53.079 59.3894 52.9345 59.4465C52.8774 59.4729 52.8203 59.4947 52.7636 59.5121C52.5932 59.5824 52.4176 59.6481 52.2467 59.7047C52.0319 59.7836 51.8129 59.8492 51.5986 59.9106C51.4494 59.9545 51.2964 59.9937 51.1473 60.0286C51.1383 60.0333 51.1298 60.0376 51.1166 60.0376C50.9674 60.0725 50.8187 60.1079 50.6696 60.1339C50.6299 60.1428 50.5911 60.1513 50.5515 60.1556C50.4288 60.1773 50.3061 60.1995 50.1833 60.2127C50.0082 60.2391 49.833 60.2609 49.6579 60.2698C49.597 60.2783 49.5399 60.283 49.4781 60.283C49.3383 60.292 49.1981 60.2962 49.0617 60.2962H49.0489C48.913 60.2962 48.7771 60.292 48.6415 60.283C48.5887 60.283 48.5363 60.2788 48.4834 60.2698C48.3611 60.2655 48.2337 60.2519 48.1025 60.2344C48.0761 60.2344 48.0454 60.2302 48.0194 60.2259C47.857 60.2042 47.6951 60.1778 47.5285 60.1471C47.3887 60.1253 47.2485 60.0942 47.1036 60.0593C46.3544 59.8884 45.5835 59.6302 44.8037 59.2837C44.1376 58.9901 43.4631 58.6356 42.7927 58.2235C42.4552 58.0176 42.1177 57.7986 41.7849 57.5664C41.6183 57.4479 41.4521 57.3299 41.2855 57.2071C40.7639 56.8257 40.247 56.4098 39.7386 55.9628C39.5988 55.8358 39.4586 55.7088 39.3184 55.5771C39.1782 55.4501 39.038 55.3189 38.9021 55.1919C38.5599 54.8633 38.227 54.5216 37.9028 54.1666C37.7758 54.0311 37.6488 53.8909 37.5214 53.746C37.1711 53.3518 36.8293 52.9444 36.505 52.5191C36.3776 52.3657 36.2595 52.208 36.1411 52.0504C35.6987 51.4636 35.2781 50.8499 34.8835 50.2146C34.7787 50.0437 34.6734 49.8681 34.5729 49.6976C34.4501 49.4918 34.3321 49.2817 34.2136 49.0712C33.7756 48.2824 33.372 47.4634 33.0217 46.6175C32.9693 46.4948 32.9165 46.372 32.8726 46.2497C32.8023 46.092 32.7409 45.9297 32.6842 45.772C32.5969 45.5398 32.5138 45.3075 32.4345 45.0753C32.3557 44.843 32.2815 44.6065 32.2069 44.37C32.1366 44.142 32.071 43.9145 32.0096 43.6822C31.9393 43.4368 31.8741 43.187 31.817 42.933C31.8123 42.9066 31.8038 42.8806 31.7995 42.8542C31.7164 42.5039 31.6419 42.1489 31.5762 41.7897C31.4885 41.3163 31.4186 40.8343 31.3657 40.3481C31.344 40.1947 31.3308 40.0412 31.3176 39.8878C31.3001 39.7259 31.2873 39.5678 31.2784 39.4059C31.2562 39.1123 31.243 38.8144 31.234 38.5165C31.2298 38.3235 31.2251 38.1309 31.2251 37.9382V24.6149C31.2251 14.7701 39.2038 6.78764 49.0485 6.77869H49.066C50.4245 6.77869 51.7473 6.93167 53.0176 7.21676C54.1788 7.47969 55.2962 7.8564 56.3564 8.33411C57.8023 8.9827 59.1472 9.81495 60.3566 10.8096C61.373 11.6423 62.2977 12.5798 63.1035 13.6136C65.484 16.6456 66.9035 20.4617 66.9035 24.6149Z" fill="#ECC19C"/>
<path d="M72.3048 87.6656V87.6699H25.8232V87.6656C25.8232 85.0414 26.2571 82.5131 27.0633 80.1604C27.2078 79.7355 27.3655 79.3149 27.5363 78.8986V78.8943C27.7068 78.478 27.8866 78.0706 28.0792 77.6674C28.8463 76.0507 29.8013 74.5391 30.9097 73.1546C31.1901 72.8086 31.4747 72.4711 31.7688 72.1468C31.9132 71.9801 32.0667 71.8182 32.2201 71.6563C32.3735 71.4986 32.5269 71.3409 32.6846 71.1833C33.4691 70.3992 34.3099 69.6807 35.1954 69.0189C35.6377 68.6903 36.0848 68.3835 36.5493 68.0856C37.0137 67.792 37.4868 67.5116 37.9687 67.2487C37.9777 67.2402 37.9862 67.2402 37.9862 67.2402C38.1746 67.1396 38.3587 67.0301 38.5427 66.9159C38.9067 66.6968 39.2655 66.4603 39.6077 66.2063C39.7828 66.0836 39.9494 65.9566 40.1156 65.8207C40.5098 65.5053 40.8908 65.1678 41.2547 64.8129C41.3728 64.6948 41.4917 64.5763 41.6097 64.4536C41.8547 64.1992 42.087 63.932 42.3107 63.6606C42.4206 63.5293 42.5302 63.3934 42.6307 63.2574C42.736 63.1219 42.8366 62.9817 42.9376 62.8411C43.7174 61.7544 44.3438 60.5587 44.8041 59.2832C45.3606 57.7321 45.6627 56.0629 45.6627 54.3191L49.0497 54.3366L52.5326 54.354C52.5326 56.0757 52.8262 57.7274 53.3695 59.2611C53.8212 60.5403 54.4472 61.7365 55.2143 62.8232C56.0116 63.9533 56.9623 64.9612 58.0401 65.8241C58.2024 65.9558 58.3643 66.0828 58.5267 66.2008C58.6844 66.3193 58.8463 66.433 59.0129 66.5426C59.0483 66.569 59.0786 66.5907 59.1139 66.6129C59.2716 66.7181 59.4293 66.8234 59.5959 66.9197C59.7753 67.0292 59.9598 67.1387 60.1435 67.2397C60.1737 67.2483 60.2006 67.2615 60.2223 67.2794C60.608 67.4941 60.9894 67.7174 61.3618 67.9497C61.5412 68.0592 61.7211 68.173 61.8962 68.3004C62.2601 68.5369 62.6151 68.7866 62.9607 69.0496C62.9607 69.0543 62.9654 69.0543 62.9654 69.0543H62.9697C63.8548 69.7156 64.6917 70.4384 65.4758 71.2186C69.698 75.4242 72.3048 81.2338 72.3048 87.6656Z" fill="#ECC19C"/>
<path d="M72.3052 87.6665H25.8237C25.8237 85.0419 26.258 82.514 27.0638 80.1613C27.2083 79.736 27.3659 79.3158 27.5368 78.8995C27.5321 78.8948 27.5368 78.8948 27.5368 78.8948C27.7034 78.4784 27.8871 78.071 28.0797 77.6683C28.8468 76.0515 29.8018 74.54 30.9102 73.1555C31.1906 72.809 31.4757 72.472 31.7693 72.1477C31.9137 71.981 32.0671 71.8191 32.2206 71.6572C32.374 71.4995 32.5274 71.3418 32.6851 71.1841C33.4696 70.4 34.3104 69.6811 35.1959 69.0198C35.6382 68.6912 36.0852 68.3844 36.5497 68.0865C37.0142 67.7886 37.4873 67.5082 37.9692 67.2453C37.9782 67.2368 37.9867 67.241 37.9867 67.241V67.2368C38.175 67.1315 38.3591 67.0263 38.5432 66.9168C39.0908 66.5839 39.6171 66.2158 40.1076 65.8126C40.1119 65.8169 40.1119 65.8169 40.1166 65.8211C42.3858 68.1432 45.5448 69.5844 49.0502 69.5934H49.0851C52.5902 69.5934 55.7624 68.1475 58.0405 65.8254L58.0452 65.8211C58.3559 66.0794 58.6802 66.3206 59.0134 66.5439C59.0484 66.5699 59.079 66.592 59.114 66.6138C59.2717 66.719 59.4336 66.8196 59.596 66.9206C59.7758 67.0301 59.9599 67.1354 60.1436 67.2359C60.1742 67.2445 60.196 67.2619 60.2224 67.2751C60.608 67.4899 60.9894 67.7132 61.3619 67.9497C61.5413 68.0592 61.7211 68.173 61.8963 68.3004C62.2602 68.5327 62.6152 68.7867 62.9608 69.0496H62.9697C63.8595 69.7157 64.696 70.4384 65.4759 71.2182C69.6985 75.4251 72.3052 81.2347 72.3052 87.6665Z" fill="#C7D4E2"/>
<path d="M66.9034 37.9387C66.9034 38.1317 66.8987 38.3243 66.8945 38.5169C66.8859 38.9158 66.8638 39.3142 66.8288 39.7084C66.8203 39.8444 66.8067 39.9799 66.7892 40.1158C66.7321 40.6809 66.6537 41.2374 66.5527 41.7897C66.5173 41.9738 66.4824 42.1532 66.4427 42.333C66.4385 42.3722 66.43 42.4076 66.421 42.4426C66.3856 42.6267 66.3417 42.8065 66.2983 42.9859C66.2761 43.0911 66.2501 43.1917 66.219 43.2927C66.2062 43.3715 66.1841 43.4504 66.1623 43.525C66.0699 43.8842 65.965 44.2349 65.8551 44.5852C65.8027 44.7518 65.7503 44.9138 65.6932 45.0804C65.6885 45.0979 65.6799 45.1153 65.6757 45.1328C65.6228 45.2815 65.5704 45.4307 65.518 45.5794C65.5005 45.6233 65.4831 45.6668 65.4652 45.7153C65.4128 45.8555 65.3603 45.9957 65.3032 46.1359C65.2376 46.3068 65.1677 46.4734 65.0974 46.6401C65.036 46.7892 64.9704 46.9379 64.9048 47.0871C64.8963 47.1135 64.8826 47.1352 64.8741 47.1612C64.7995 47.3189 64.7296 47.477 64.6551 47.63C64.5805 47.7919 64.5017 47.9543 64.4181 48.1166C64.2605 48.4363 64.0896 48.7563 63.9187 49.0674C63.8399 49.2076 63.761 49.3478 63.6818 49.488C63.0072 50.6492 62.258 51.7401 61.4432 52.7475C61.3333 52.892 61.2199 53.0322 61.1015 53.1681C60.9391 53.365 60.7725 53.5581 60.6063 53.7464C60.4571 53.913 60.3084 54.0792 60.155 54.2416C59.7344 54.6929 59.3048 55.1224 58.8668 55.5256C58.7794 55.6133 58.6869 55.6922 58.5949 55.7753C58.4462 55.9112 58.2974 56.0425 58.1436 56.1695C58.0256 56.2747 57.9028 56.3753 57.7797 56.4763C57.4643 56.7345 57.149 56.9842 56.8294 57.2165C56.6977 57.3175 56.5618 57.4138 56.4263 57.5058C56.2072 57.6635 55.9839 57.8127 55.7602 57.9571C55.6375 58.0402 55.5105 58.1191 55.3831 58.1936C54.936 58.4698 54.4852 58.7238 54.0382 58.9428C53.9286 58.9995 53.8191 59.0523 53.7096 59.1047C53.5997 59.1571 53.4863 59.21 53.3678 59.2624C53.2229 59.328 53.0785 59.3894 52.934 59.4465C52.8769 59.4729 52.8198 59.4947 52.7631 59.5121C52.5927 59.5824 52.4171 59.6481 52.2462 59.7047C52.0314 59.7836 51.8124 59.8492 51.5981 59.9106C51.4489 59.9545 51.2959 59.9937 51.1468 60.0286C51.1378 60.0333 51.1293 60.0376 51.1161 60.0376C50.9669 60.0725 50.8182 60.1079 50.6691 60.1339C50.6294 60.1428 50.5907 60.1513 50.551 60.1556C50.4283 60.1773 50.3056 60.1995 50.1828 60.2127C50.0077 60.2391 49.8326 60.2609 49.6574 60.2698C49.5965 60.2783 49.5394 60.283 49.4776 60.283C49.3378 60.292 49.1976 60.2962 49.0612 60.2962H49.0485C48.9125 60.2962 48.7766 60.292 48.6411 60.283C48.5882 60.283 48.5358 60.2788 48.483 60.2698C48.3607 60.2655 48.2332 60.2519 48.102 60.2344C48.0756 60.2344 48.0449 60.2302 48.0189 60.2259C47.8565 60.2042 47.6946 60.1778 47.528 60.1471C47.3882 60.1253 47.248 60.0942 47.1031 60.0593C46.3539 59.8884 45.5831 59.6302 44.8032 59.2837C44.1372 58.9901 43.4626 58.6356 42.7923 58.2235C42.4547 58.0219 42.1219 57.8029 41.7844 57.5664C41.6178 57.4479 41.4516 57.3299 41.285 57.2071C40.7634 56.8257 40.2465 56.4098 39.7381 55.9628C39.5983 55.8358 39.4581 55.7088 39.3179 55.5771C39.1777 55.4501 39.0375 55.3189 38.9016 55.1919C38.5594 54.8633 38.2266 54.5216 37.9023 54.1666C37.7753 54.0311 37.6483 53.8909 37.5209 53.746C37.1706 53.3518 36.8288 52.9444 36.5045 52.5191C36.3771 52.3657 36.2591 52.208 36.1406 52.0504C35.6983 51.4636 35.2777 50.8499 34.883 50.2145C34.7782 50.0437 34.673 49.8681 34.5724 49.6976C34.4497 49.4918 34.3316 49.2817 34.2131 49.0712C33.7751 48.2824 33.3715 47.4634 33.0212 46.6175C32.9688 46.4947 32.916 46.372 32.8721 46.2497C32.8018 46.092 32.7404 45.9297 32.6837 45.772C32.5964 45.5398 32.5133 45.3075 32.434 45.0753C32.3552 44.843 32.281 44.6065 32.2064 44.37C32.1361 44.142 32.0705 43.9145 32.0091 43.6822C31.9388 43.4367 31.8736 43.187 31.8165 42.933C31.8118 42.9066 31.8033 42.8806 31.799 42.8542C31.716 42.5039 31.6414 42.1489 31.5757 41.7897C31.488 41.3163 31.4181 40.8343 31.3652 40.3481C31.3435 40.1947 31.3303 40.0412 31.3171 39.8878C31.2996 39.7259 31.2868 39.5678 31.2779 39.4059C31.2557 39.1123 31.2425 38.8144 31.2336 38.5165C31.2293 38.3235 31.2246 38.1308 31.2246 37.9382L34.0729 43.5377L38.9668 45.6714L44.7542 46.193L49.048 46.583H49.0744L53.0921 46.9469L62.0432 47.7531L66.9034 37.9387Z" fill="#543E36"/>
<path d="M63.1043 13.6133C62.2325 15.5893 61.0976 17.4251 59.757 19.0901C59.6782 19.1868 59.5993 19.2831 59.5162 19.3794C56.7693 22.6871 53.168 25.2593 49.0493 26.7619C47.9669 27.1608 46.85 27.4847 45.702 27.7258C44.9353 27.8878 44.1555 28.0152 43.3624 28.1072C42.4509 28.2078 41.5224 28.2607 40.5806 28.2607C39.5029 28.2607 38.4469 28.1903 37.4088 28.0548C36.392 27.9278 35.3974 27.7395 34.4249 27.4855C33.8684 27.3453 33.3251 27.1834 32.786 27.0035C32.2559 26.8284 31.739 26.6354 31.2263 26.4253V24.6159C31.2263 14.7711 39.205 6.78861 49.0497 6.77966H49.0672C50.4258 6.77966 51.7485 6.93265 53.0188 7.21774C54.1801 7.48067 55.2974 7.85738 56.3577 8.33508C57.8036 8.98367 59.1485 9.81593 60.3579 10.8105C61.3738 11.6415 62.2985 12.5795 63.1043 13.6133Z" fill="#543E36"/>
<path d="M66.9034 24.6147V28.124C63.8625 25.7713 61.3435 22.7964 59.5252 19.3966C59.5209 19.3923 59.5209 19.3834 59.5162 19.3791C57.729 16.0407 56.6202 12.2945 56.3577 8.3335C57.8036 8.98209 59.1485 9.81434 60.3579 10.809C61.3742 11.6416 62.2989 12.5792 63.1048 13.613C65.4839 16.6454 66.9034 20.4615 66.9034 24.6147Z" fill="#543E36"/>
<path d="M33.3157 25.9908C33.1278 26.3194 32.9565 26.6569 32.7856 27.0029C32.7204 27.1384 32.6543 27.2833 32.5887 27.4235C31.7258 29.3424 31.2915 31.2264 31.2302 32.9267C31.2302 32.9749 31.2255 33.0273 31.2255 33.0759V26.2056C31.2255 25.9601 31.2344 25.7189 31.2344 25.4824C31.9269 25.6623 32.6189 25.8374 33.3157 25.9908Z" fill="#543E36"/>
<path d="M64.8221 25.9909C65.0872 26.4567 65.3237 26.934 65.5509 27.4232C66.4406 29.4018 66.8762 31.3343 66.9137 33.0773V26.2036C66.9137 25.962 66.9047 25.7203 66.9047 25.4843C66.2131 25.6628 65.5223 25.8354 64.8221 25.9909Z" fill="#543E36"/>
<path d="M64.7871 27.7609C64.7871 27.6864 64.73 27.6207 64.6555 27.6118C64.0248 27.5155 61.1854 27.1251 58.1316 27.1251C54.6658 27.1251 50.1926 28.2118 49.4128 28.2118H48.7207C48.3568 28.2118 47.1917 27.9753 45.7019 27.7256C43.9888 27.4362 41.8509 27.1251 40.0018 27.1251C37.7676 27.1251 35.6467 27.3356 34.4245 27.4844C33.9775 27.5372 33.6489 27.5849 33.478 27.6114C33.4034 27.6203 33.3463 27.6859 33.3463 27.7605L33.3114 29.6223C33.3114 29.6879 33.351 29.745 33.412 29.7715L33.6221 29.846C33.9331 29.9645 33.9071 35.5768 35.5806 36.9788C36.5752 37.8068 37.4603 38.2798 41.1886 38.2798C43.3488 38.2798 44.7069 37.6973 45.9951 35.9578C46.9241 34.7092 47.7474 31.756 47.7474 31.756C47.9971 30.5381 48.904 30.4418 49.0488 30.4328C49.0578 30.4328 49.0663 30.4328 49.0663 30.4328C49.0966 30.4328 50.118 30.4503 50.3852 31.756C50.3852 31.756 51.209 34.7092 52.1375 35.9578C53.4253 37.6973 54.7839 38.2798 56.9436 38.2798C60.6723 38.2798 61.557 37.8068 62.5516 36.9788C64.2255 35.5768 64.1991 29.9645 64.5102 29.846L64.7207 29.7715C64.7816 29.745 64.8212 29.6884 64.8212 29.6223L64.7871 27.7609ZM45.9955 34.4028C45.4479 35.6995 44.0327 37.3734 42.0392 37.474C36.0587 37.7761 35.7826 36.1069 35.3969 34.7838C35.007 33.4606 34.9065 32.2993 35.0594 30.9762C35.2171 29.653 35.5504 28.8774 36.1508 28.4875C36.409 28.3166 36.6899 28.1632 37.4083 28.0537C38.0522 27.9574 39.0469 27.9003 40.7028 27.9003C41.6621 27.9003 42.5604 27.9749 43.362 28.1061C45.4914 28.4479 46.9284 29.171 46.9284 29.8848C46.9284 30.3719 46.8056 32.4834 45.9955 34.4028ZM62.7361 34.7838C62.3509 36.1069 62.0747 37.7761 56.0943 37.474C54.1008 37.3734 52.6855 35.6995 52.138 34.4028C51.3274 32.4839 51.2051 30.3719 51.2051 29.8857C51.2051 28.9043 53.9303 27.9007 57.4306 27.9007C60.9314 27.9007 61.4918 28.1636 61.9831 28.4879C62.5831 28.8778 62.916 29.6534 63.0741 30.9766C63.2275 32.2998 63.1265 33.461 62.7361 34.7838Z" fill="#1A1A1A"/>
<path d="M49.0842 40.7514L49.0796 45.0716L49.0753 46.5831V47.7704L49.0706 51.7135V51.7177L49.0664 51.7135H49.0617L49.0489 51.7045L31.8174 42.9337C31.8127 42.9072 31.8042 42.8812 31.7999 42.8548C31.7168 42.5045 31.6422 42.1495 31.5766 41.7903C31.4888 41.3169 31.4189 40.8349 31.3661 40.3487C31.3444 40.1953 31.3311 40.0418 31.3179 39.8884C31.3005 39.7265 31.2877 39.5684 31.2787 39.4065C31.2566 39.1129 31.2434 38.815 31.2344 38.5171C31.2302 38.3241 31.2255 38.1315 31.2255 37.9388V32.7032C31.2255 32.7778 31.2302 32.8524 31.2302 32.9265C31.2651 34.1926 31.4667 35.5861 31.8566 37.0098C32.1591 38.105 32.5359 39.1171 32.9739 40.0197V40.024C34.122 42.4121 35.6599 44.0327 37.0747 44.2956C37.1625 44.3088 37.2545 44.3173 37.3423 44.3263C37.8899 44.3877 38.4639 44.4226 39.0554 44.4226C41.2897 44.4226 43.2746 42.6264 44.5232 41.899C44.5322 41.8947 44.5407 41.89 44.5497 41.8858C44.6153 41.8461 44.6813 41.8069 44.738 41.7673C44.7555 41.7541 44.773 41.7456 44.7904 41.7366C45.8422 41.1362 47.3579 40.7552 49.0493 40.751H49.0842V40.7514Z" fill="#543E36"/>
<path d="M66.9072 32.7029L66.903 37.9385C66.903 39.2531 66.7803 40.5409 66.5527 41.7899C66.4602 42.2894 66.3554 42.7841 66.2327 43.2751L62.1886 49.1153L49.0711 51.7135H49.0668L49.0621 51.7178V51.7135L49.0493 40.7502H49.0843C50.7756 40.7544 52.2957 41.1358 53.3474 41.7358C53.3649 41.7448 53.3776 41.7533 53.3955 41.7665C53.4569 41.8061 53.5225 41.8453 53.5882 41.885C53.5924 41.8892 53.6009 41.8939 53.6099 41.8982C54.8632 42.6256 56.8435 44.4231 59.0782 44.4231C59.6696 44.4231 60.2432 44.3881 60.7908 44.3268C60.8829 44.3178 60.9707 44.3093 61.0627 44.2961C62.4737 44.0332 64.0159 42.4121 65.1592 40.0244V40.0202C65.5969 39.1176 65.974 38.1055 66.2761 37.0103C66.6707 35.5644 66.8766 34.1539 66.903 32.8699C66.9072 32.8124 66.9072 32.7596 66.9072 32.7029Z" fill="#543E36"/>
<path d="M49.0633 47.7717C51.4769 47.7717 53.4334 47.1669 53.4334 46.4208C53.4334 45.6748 51.4769 45.0699 49.0633 45.0699C46.6498 45.0699 44.6932 45.6748 44.6932 46.4208C44.6932 47.1669 46.6498 47.7717 49.0633 47.7717Z" fill="#ECC19C"/>
<path d="M36.3033 68.2476V92.3493H34.4415V69.6061C34.6912 69.4045 34.941 69.2072 35.1954 69.0189C35.5589 68.7474 35.9266 68.493 36.3033 68.2476Z" fill="#435363"/>
<path d="M61.8251 68.2523V87.6657V92.3494H63.6869V87.6657V69.6104L61.8251 68.2523Z" fill="#435363"/>
<path d="M43.9663 66.7728L49.0634 72.882L54.1609 66.7728H43.9663Z" fill="#141720"/>
<path d="M49.0634 98.1898H46.0493L48.2269 70.1497C48.3185 70.5063 49.8087 70.5063 49.9004 70.1497L52.078 98.1898H49.0634Z" fill="#141720"/>
<path d="M49.0617 66.7414L49.0489 66.7631L49.0442 66.7721L46.928 70.3252L44.952 73.6372L39.6022 66.2023C39.7731 66.0796 39.9439 65.9483 40.1063 65.8124C40.1106 65.8166 40.1106 65.8166 40.1152 65.8213C41.1883 64.9669 42.1437 63.9638 42.9367 62.8422L49.0489 66.7328L49.0617 66.7414Z" fill="#E7ECF2"/>
<path d="M58.5255 66.2018L53.1757 73.6367L51.1997 70.3248L49.0788 66.7716L49.0613 66.7409L55.2131 62.8242C56.0104 63.9543 56.9611 64.9622 58.0388 65.8251C58.2016 65.9564 58.3631 66.0838 58.5255 66.2018Z" fill="#E7ECF2"/>
</svg>
