<svg width="19" height="19" viewBox="0 0 19 19" fill="none" xmlns="http://www.w3.org/2000/svg">
<path d="M11.1821 9.49285L12.8612 7.81373C13.0933 7.58099 13.0933 7.20572 12.8612 6.97417L12.0216 6.13402C11.7895 5.90248 11.4142 5.90188 11.1821 6.13402L9.50235 7.81373L7.82383 6.13521C7.59109 5.90248 7.21521 5.90248 6.98307 6.13402L6.14352 6.97417C5.91138 7.20572 5.91197 7.58219 6.14471 7.81433L7.82323 9.49285L6.14763 11.1684C5.91549 11.4005 5.91549 11.7758 6.14763 12.0079L6.98719 12.8481C7.21933 13.0796 7.59461 13.0802 7.82675 12.8481L9.50228 11.1726L11.1897 12.8606C11.4224 13.0933 11.7983 13.0933 12.0305 12.8612L12.87 12.0216C13.1021 11.7895 13.1016 11.4136 12.8694 11.1809L11.1821 9.49285ZM9.49995 0C4.25298 0 0 4.25305 0 9.49936C0 14.7463 4.25298 18.9993 9.49995 18.9993C14.7469 18.9993 18.9999 14.7463 18.9999 9.49936C18.9999 4.25365 14.7469 0 9.49995 0ZM9.49995 17.2181C5.23687 17.2181 1.78127 13.7625 1.78127 9.49942C1.78127 5.23634 5.23687 1.78067 9.49995 1.78067C13.763 1.78067 17.2186 5.23628 17.2186 9.49936C17.2186 13.7624 13.763 17.2181 9.49995 17.2181Z" fill="#E2574C"/>
</svg>
