<svg width="29" height="20" viewBox="0 0 29 20" fill="none" xmlns="http://www.w3.org/2000/svg">
<path d="M2.24823 1.17563L12.4881 9.2867C12.9524 9.65408 13.5923 9.81736 14.2138 9.78675C14.8343 9.81736 15.4741 9.6551 15.9384 9.2867L26.1783 1.17563C26.9988 0.529648 26.8131 0 25.7721 0H14.2148H2.65745C1.61551 0 1.42977 0.529648 2.24823 1.17563Z" fill="#3ABAD6"/>
<path d="M26.9181 3.31563L15.7282 11.8114C15.3098 12.1257 14.7618 12.2788 14.2158 12.2717C13.6688 12.2788 13.1208 12.1247 12.7024 11.8114L1.51036 3.31563C0.679664 2.68597 0 3.02376 0 4.06571V18.0049C0 19.0469 0.853151 19.9 1.8951 19.9H14.2137H26.5334C27.5754 19.9 28.4285 19.0469 28.4285 18.0049V4.06571C28.4285 3.02376 27.7488 2.68597 26.9181 3.31563Z" fill="#3ABAD6"/>
</svg>
