<svg width="63" height="48" viewBox="0 0 63 48" fill="none" xmlns="http://www.w3.org/2000/svg">
<path d="M63 39.8713L63 7.97938C63 3.58492 59.4151 -2.70163e-05 55.0206 -2.74005e-05L29.2449 -2.96538e-05C24.8505 -3.0038e-05 21.2655 3.58492 21.2655 7.97937L21.2655 13.1448C21.2655 14.0185 21.9722 14.7253 22.846 14.7253C23.7197 14.7253 24.4264 14.0185 24.4264 13.1448L24.4264 7.97937C24.4264 5.31957 26.598 3.14805 29.2578 3.14805L55.0206 3.14805C57.6804 3.14805 59.8519 5.31958 59.8519 7.97938L59.8519 39.8713C59.8519 42.5311 57.6804 44.7026 55.0206 44.7026L29.2449 44.7026C26.5851 44.7026 24.4136 42.5311 24.4136 39.8713L24.4136 34.7059C24.4136 33.8321 23.7069 33.1254 22.8331 33.1254C21.9594 33.1254 21.2527 33.8321 21.2527 34.7059L21.2527 39.8713C21.2527 44.2658 24.8376 47.8507 29.2321 47.8507L55.0206 47.8507C59.415 47.8507 63 44.2786 63 39.8713Z" fill="#3B3B3B"/>
<path d="M13.4789 12.0396C13.1705 11.7313 12.7722 11.5771 12.361 11.5771C11.9498 11.5771 11.5515 11.7313 11.2431 12.0396L0.462545 22.8202C-0.154223 23.437 -0.154223 24.4264 0.462544 25.0431L11.2431 35.8237C11.8599 36.4404 12.8493 36.4404 13.466 35.8237C14.0828 35.2069 14.0828 34.2175 13.466 33.6008L5.37097 25.5057L34.9115 25.5057C35.7852 25.5057 36.4919 24.799 36.4919 23.9252C36.4919 23.0515 35.7852 22.3448 34.9115 22.3448L5.38382 22.3448L13.4789 14.2497C14.0956 13.6458 14.0956 12.6436 13.4789 12.0396Z" fill="#3B3B3B"/>
</svg>
