<svg width="56" height="57" viewBox="0 0 56 57" fill="none" xmlns="http://www.w3.org/2000/svg">
<path d="M44.2849 52.7733H8.48839C3.80069 52.7733 0 48.9726 0 44.2849V8.48839C0 3.80069 3.80069 0 8.48839 0H44.2849C48.9726 0 52.7733 3.80069 52.7733 8.48839V44.2849C52.7733 48.9726 48.9726 52.7733 44.2849 52.7733Z" fill="#3ABAD6"/>
<path d="M44.6544 14.2082H26.3867C25.8265 14.2082 25.3718 13.7546 25.3718 13.1933C25.3718 12.6321 25.8265 12.1785 26.3867 12.1785H44.6544C45.2146 12.1785 45.6693 12.6321 45.6693 13.1933C45.6693 13.7546 45.2146 14.2082 44.6544 14.2082Z" fill="white"/>
<path d="M44.6544 28.4165H26.3867C25.8265 28.4165 25.3718 27.9628 25.3718 27.4016C25.3718 26.8404 25.8265 26.3867 26.3867 26.3867H44.6544C45.2146 26.3867 45.6693 26.8404 45.6693 27.4016C45.6693 27.9628 45.2146 28.4165 44.6544 28.4165Z" fill="white"/>
<path d="M44.6544 42.6245H26.3867C25.8265 42.6245 25.3718 42.1708 25.3718 41.6096C25.3718 41.0484 25.8265 40.5947 26.3867 40.5947H44.6544C45.2146 40.5947 45.6693 41.0484 45.6693 41.6096C45.6693 42.1708 45.2146 42.6245 44.6544 42.6245Z" fill="white"/>
<path d="M43.6395 56.8327C50.3655 56.8327 55.818 51.3803 55.818 44.6543C55.818 37.9283 50.3655 32.4758 43.6395 32.4758C36.9135 32.4758 31.4611 37.9283 31.4611 44.6543C31.4611 51.3803 36.9135 56.8327 43.6395 56.8327Z" fill="#DCDF45"/>
<path d="M49.7287 43.6395H44.6544V38.5652C44.6544 38.005 44.1997 37.5503 43.6395 37.5503C43.0793 37.5503 42.6246 38.005 42.6246 38.5652V43.6395H37.5503C36.9901 43.6395 36.5354 44.0942 36.5354 44.6544C36.5354 45.2146 36.9901 45.6693 37.5503 45.6693H42.6246V50.7436C42.6246 51.3038 43.0793 51.7585 43.6395 51.7585C44.1997 51.7585 44.6544 51.3038 44.6544 50.7436V45.6693H49.7287C50.2889 45.6693 50.7436 45.2146 50.7436 44.6544C50.7436 44.0942 50.2889 43.6395 49.7287 43.6395Z" fill="white"/>
<circle cx="13.6911" cy="13.691" r="3.15951" fill="white"/>
<circle cx="13.6911" cy="27.3824" r="3.15951" fill="white"/>
<circle cx="13.6911" cy="41.0736" r="3.15951" fill="white"/>
</svg>
