<svg width="17" height="23" viewBox="0 0 17 23" fill="none" xmlns="http://www.w3.org/2000/svg">
<path d="M16.5278 8.5H15.1111V6.6111C15.1111 2.9657 12.1454 0 8.5 0C4.85456 0 1.8889 2.9657 1.8889 6.6111V8.5H0.472237C0.211216 8.5 0 8.71122 0 8.97224V20.7778C0 21.8195 0.847122 22.6667 1.8889 22.6667H15.1111C16.1529 22.6667 17 21.8195 17 20.7778V8.97224C17 8.71122 16.7888 8.5 16.5278 8.5ZM9.91392 18.3646C9.92866 18.4978 9.88581 18.6316 9.79634 18.7317C9.70687 18.8317 9.57866 18.8889 9.44447 18.8889H7.55557C7.42139 18.8889 7.29318 18.8317 7.20371 18.7317C7.11423 18.6316 7.07134 18.4979 7.08612 18.3646L7.38402 15.6857C6.90027 15.3339 6.61114 14.7772 6.61114 14.1667C6.61114 13.1249 7.45826 12.2778 8.50004 12.2778C9.54183 12.2778 10.3889 13.1249 10.3889 14.1667C10.3889 14.7772 10.0998 15.3339 9.61607 15.6857L9.91392 18.3646ZM12.2778 8.5H4.72224V6.6111C4.72224 4.52806 6.41697 2.83333 8.5 2.83333C10.583 2.83333 12.2778 4.52806 12.2778 6.6111V8.5V8.5Z" fill="#3ABAD6"/>
</svg>
