<svg width="42" height="43" viewBox="0 0 42 43" fill="none" xmlns="http://www.w3.org/2000/svg">
<path d="M34.1035 0H7.8965C3.53528 0 0 3.53544 0 7.8965V25.0851C0 29.4462 3.53544 32.9816 7.8965 32.9816H11.6576C11.8365 32.9816 11.9815 33.1266 11.9815 33.3055V41.7843C11.9815 42.7867 13.2078 43.2728 13.8945 42.5424L22.7905 33.0836C22.8518 33.0184 22.9372 32.9816 23.0266 32.9816H34.1035C38.4646 32.9816 42 29.4461 42 25.0851V7.8965C42 3.53544 38.4646 0 34.1035 0Z" fill="#EC5569"/>
<path d="M15.3037 30.0346C15.3037 29.8462 15.1633 29.6934 14.99 29.6934H11.3489C7.12693 29.6934 3.70434 25.9705 3.70434 21.3781V3.2776C3.70434 2.50049 3.80269 1.74843 3.98591 1.03491C1.6049 2.39494 0 4.95824 0 7.89653V25.0851C0 29.4461 3.53544 32.9816 7.8965 32.9816H11.6576C11.8365 32.9816 11.9815 33.1267 11.9815 33.3055V41.7843C11.9815 42.7868 13.2078 43.2728 13.8945 42.5425L15.3036 41.0441V30.0346H15.3037Z" fill="#E63950"/>
<path d="M29.8726 10.248C27.8677 8.24317 24.6172 8.24317 22.6123 10.248L21.4798 11.3805C21.2098 11.6505 20.7719 11.6505 20.5019 11.3805L19.3875 10.2661C17.3826 8.26127 14.1321 8.26127 12.1272 10.2661C10.1223 12.271 10.1223 15.5215 12.1272 17.5264L20.5025 25.9018C20.7726 26.1718 21.2105 26.1718 21.4805 25.9018L29.8725 17.5083C31.8774 15.5034 31.8774 12.253 29.8726 10.248Z" fill="#EC5569"/>
<path d="M29.8726 10.248C27.8677 8.24317 24.6172 8.24317 22.6123 10.248L21.4798 11.3805C21.2098 11.6505 20.7719 11.6505 20.5019 11.3805L19.3875 10.2661C17.3826 8.26127 14.1321 8.26127 12.1272 10.2661C10.1223 12.271 10.1223 15.5215 12.1272 17.5264L20.5025 25.9018C20.7726 26.1718 21.2105 26.1718 21.4805 25.9018L29.8725 17.5083C31.8774 15.5034 31.8774 12.253 29.8726 10.248Z" fill="#FFF5F5"/>
<path d="M14.8129 17.5264C12.808 15.5215 12.808 12.271 14.8129 10.2661C15.4705 9.60844 16.2625 9.16794 17.1002 8.94183C15.384 8.47838 13.4745 8.91888 12.1274 10.2661C10.1226 12.2709 10.1226 15.5215 12.1274 17.5264L20.5028 25.9018C20.7728 26.1718 21.2107 26.1718 21.4807 25.9018L22.3344 25.0479L14.8129 17.5264Z" fill="#DCE6EB"/>
</svg>
