<svg width="23" height="21" viewBox="0 0 23 21" fill="none" xmlns="http://www.w3.org/2000/svg">
<path d="M11.1671 0.509877C11.2719 0.18742 11.7281 0.187418 11.8329 0.509878L14.0515 7.33815C14.1385 7.60596 14.3881 7.78729 14.6697 7.78729H21.8494C22.1884 7.78729 22.3294 8.22115 22.0551 8.42044L16.2466 12.6405C16.0188 12.8061 15.9235 13.0995 16.0105 13.3673L18.2291 20.1955C18.3339 20.518 17.9648 20.7861 17.6905 20.5869L11.8821 16.3667C11.6542 16.2012 11.3458 16.2012 11.1179 16.3667L5.30947 20.5869C5.03517 20.7861 4.6661 20.518 4.77087 20.1955L6.98951 13.3673C7.07653 13.0995 6.9812 12.8061 6.75338 12.6405L0.944909 8.42044C0.670611 8.22115 0.811581 7.78729 1.15064 7.78729H8.3303C8.6119 7.78729 8.86147 7.60596 8.94849 7.33815L11.1671 0.509877Z" fill="#FAFE4C" stroke="#363620" stroke-width="0.3"/>
</svg>
