<svg width="475" height="475" viewBox="0 0 475 475" fill="none" xmlns="http://www.w3.org/2000/svg">
<g clip-path="url(#clip0)">
<path d="M377.75 187.342H377.083C367.972 187.291 359.17 190.639 352.393 196.729C346.908 181.548 332.967 170.635 316.639 170.635C306.632 170.705 297.073 174.814 290.14 182.036C283.765 169.129 270.975 160.374 256.27 160.374H255.56C247.679 160.253 239.989 162.816 233.754 167.639V75.628C233.754 53.393 216.443 35.3053 195.386 35.3053C174.353 35.3053 157.131 53.3813 157.12 75.6007L156.944 258.155L146.613 245.608C137.553 234.328 124.218 227.325 109.79 226.268C95.6584 225.3 81.7571 230.216 71.3789 239.861L62.3897 247.309C59.4908 249.712 58.6637 253.809 60.3999 257.149L147.799 425.146C163.78 455.848 194.185 475.001 227.149 475.001H325.644V474.915C375.584 474.915 416.075 431.58 416.126 378.37C416.145 354.563 416.055 336.819 416.071 322.437C416.122 283.96 416.083 269.762 415.985 227.372C415.934 205.187 398.748 187.342 377.75 187.342V187.342ZM399.973 322.383C399.957 336.768 399.934 354.583 399.911 378.39C399.868 422.801 366.341 459.016 325.176 459.016H227.153C200.17 459.016 175.196 443.156 161.981 417.765L77.5551 255.533L81.7219 252.057C81.8273 251.971 81.9287 251.87 82.0302 251.78C89.1974 245.034 98.842 241.57 108.662 242.213C118.701 242.982 127.963 247.89 134.241 255.76L158.7 285.521C160.838 288.131 164.388 289.11 167.564 287.975C170.74 286.84 172.863 283.828 172.863 280.457L173.007 75.6085C173.015 62.1949 183.159 51.2822 195.394 51.2822C207.63 51.2822 217.774 62.2066 217.774 75.628V199.14C217.774 199.569 217.754 200.002 217.754 200.439C217.754 200.627 217.774 200.818 217.774 201.001V253.809C217.774 258.222 221.351 261.799 225.764 261.799C230.177 261.799 233.754 258.222 233.754 253.809V199.409C233.754 186.468 243.641 176.355 255.56 176.355H256.27C268.514 176.355 278.701 187.026 278.701 200.447V248.768C278.701 253.181 282.278 256.758 286.691 256.758C291.104 256.758 294.681 253.181 294.681 248.768V210.856C294.681 197.431 304.381 186.511 316.69 186.511C328.929 186.511 338.629 197.427 338.629 210.856V246.622C338.629 251.035 342.206 254.613 346.619 254.613C351.032 254.613 354.609 251.035 354.609 246.622V227.255C354.609 213.829 364.839 203.323 377.083 203.323H377.75C389.962 203.323 399.914 214.009 399.946 227.391C400.043 269.751 400.024 283.933 399.973 322.383Z" fill="white"/>
<path d="M131.736 79.077C136.149 79.077 139.727 75.4993 139.727 71.0866C139.855 40.5958 164.611 15.9496 195.098 15.9496C225.589 15.9496 250.34 40.5958 250.469 71.0866C250.469 75.4993 254.047 79.077 258.459 79.077C262.872 79.077 266.45 75.4993 266.45 71.0866C266.301 31.7822 234.402 0 195.098 0C155.797 0 123.894 31.7822 123.746 71.0866C123.746 75.4993 127.324 79.077 131.736 79.077Z" fill="white"/>
</g>
<defs>
<clipPath id="clip0">
<rect width="475" height="475" fill="white"/>
</clipPath>
</defs>
</svg>
