<svg width="54" height="55" viewBox="0 0 54 55" fill="none" xmlns="http://www.w3.org/2000/svg">
<path d="M42.6413 50.8146H8.17334C3.65963 50.8146 0 47.155 0 42.6413V8.17334C0 3.65963 3.65963 0 8.17334 0H42.6413C47.155 0 50.8146 3.65963 50.8146 8.17334V42.6413C50.8146 47.155 47.155 50.8146 42.6413 50.8146Z" fill="#3ABAD6"/>
<path d="M42.9971 13.681H25.4074C24.868 13.681 24.4302 13.2442 24.4302 12.7038C24.4302 12.1634 24.868 11.7266 25.4074 11.7266H42.9971C43.5365 11.7266 43.9743 12.1634 43.9743 12.7038C43.9743 13.2442 43.5365 13.681 42.9971 13.681Z" fill="white"/>
<path d="M42.9971 27.3619H25.4074C24.868 27.3619 24.4302 26.9251 24.4302 26.3847C24.4302 25.8443 24.868 25.4075 25.4074 25.4075H42.9971C43.5365 25.4075 43.9743 25.8443 43.9743 26.3847C43.9743 26.9251 43.5365 27.3619 42.9971 27.3619Z" fill="white"/>
<path d="M42.9971 41.0428H25.4074C24.868 41.0428 24.4302 40.606 24.4302 40.0656C24.4302 39.5252 24.868 39.0884 25.4074 39.0884H42.9971C43.5365 39.0884 43.9743 39.5252 43.9743 40.0656C43.9743 40.606 43.5365 41.0428 42.9971 41.0428Z" fill="white"/>
<path d="M11.7958 16.6125C11.5915 16.6125 11.3853 16.549 11.2094 16.4171L6.74264 13.0663C6.31072 12.7428 6.22374 12.1301 6.5472 11.6992C6.87065 11.2672 7.48336 11.1803 7.91529 11.5037L11.6502 14.3044L17.7557 7.18252C18.1075 6.77209 18.7251 6.72519 19.1336 7.07698C19.543 7.4278 19.5909 8.04441 19.2391 8.45386L12.5384 16.2715C12.345 16.4963 12.0723 16.6125 11.7958 16.6125Z" fill="white"/>
<path d="M11.7958 30.2932C11.5915 30.2932 11.3853 30.2297 11.2094 30.0978L6.74264 26.7469C6.31072 26.4235 6.22374 25.8108 6.5472 25.3798C6.87065 24.9479 7.48336 24.8609 7.91529 25.1844L11.6502 27.9851L17.7557 20.8632C18.1075 20.4528 18.7251 20.4059 19.1336 20.7576C19.543 21.1085 19.5909 21.7251 19.2391 22.1345L12.5384 29.9522C12.345 30.1769 12.0723 30.2932 11.7958 30.2932Z" fill="white"/>
<path d="M11.7958 44.9504C11.5915 44.9504 11.3853 44.8869 11.2094 44.755L6.74264 41.4042C6.31072 41.0807 6.22374 40.468 6.5472 40.0371C6.87065 39.6051 7.48336 39.5191 7.91529 39.8416L11.6502 42.6423L17.7557 35.5214C18.1075 35.111 18.7251 35.0641 19.1336 35.4158C19.543 35.7667 19.5909 36.3833 19.2391 36.7927L12.5384 44.6094C12.345 44.8341 12.0723 44.9504 11.7958 44.9504Z" fill="white"/>
<path d="M42.0199 54.7237C48.4963 54.7237 53.7464 49.4736 53.7464 42.9972C53.7464 36.5209 48.4963 31.2708 42.0199 31.2708C35.5436 31.2708 30.2935 36.5209 30.2935 42.9972C30.2935 49.4736 35.5436 54.7237 42.0199 54.7237Z" fill="#73E192"/>
<path d="M48.4412 37.3088C47.9965 37 47.3887 37.1094 47.0809 37.5531L41.6124 45.4098L37.7535 42.2417C37.3372 41.8987 36.7206 41.9603 36.3785 42.3775C36.0355 42.7948 36.0961 43.4104 36.5144 43.7525L41.1913 47.5919C41.3672 47.7355 41.5861 47.8137 41.8108 47.8137C41.8548 47.8137 41.8997 47.8108 41.9447 47.8049C42.2144 47.7668 42.4567 47.6193 42.6131 47.3955L48.6855 38.67C48.9933 38.2264 48.8838 37.6176 48.4412 37.3088Z" fill="white"/>
</svg>
