<svg width="54" height="54" viewBox="0 0 54 54" fill="none" xmlns="http://www.w3.org/2000/svg">
<path d="M45.3143 54H8.68569C3.88904 54 0 50.111 0 45.3143V8.68569C0 3.88904 3.88904 0 8.68569 0H45.3143C50.111 0 54 3.88904 54 8.68569V45.3143C54 50.111 50.111 54 45.3143 54Z" fill="#3ABAD6"/>
<path d="M30.7893 18.484L36.2817 23.9764L22.3789 37.8792L16.8896 32.3868L30.7893 18.484ZM40.4494 17.1594L38 14.71C37.0533 13.7633 35.5162 13.7633 34.5664 14.71L32.2201 17.0562L37.7125 22.5487L40.4494 19.8118C41.1835 19.0776 41.1835 17.8936 40.4494 17.1594ZM14.0153 40.1068C13.9153 40.5566 14.3215 40.9597 14.7714 40.8503L20.8917 39.3663L15.4025 33.874L14.0153 40.1068Z" fill="white"/>
</svg>
