<svg width="19" height="24" viewBox="0 0 19 24" fill="none" xmlns="http://www.w3.org/2000/svg">
<path d="M9.09847 11.7008C11.7585 11.7008 13.9151 9.08148 13.9151 5.85041C13.9151 2.61928 13.207 0 9.09847 0C4.98991 0 4.28174 2.61928 4.28174 5.85041C4.28174 9.08148 6.43831 11.7008 9.09847 11.7008Z" fill="#3ABAD6"/>
<path d="M0.000947173 20.6336C0.000126897 20.4366 -0.000693379 20.5781 0.000947173 20.6336V20.6336Z" fill="#3ABAD6"/>
<path d="M18.1956 20.7874C18.1982 20.7335 18.1964 20.4132 18.1956 20.7874V20.7874Z" fill="#3ABAD6"/>
<path d="M18.1856 20.3974C18.0964 14.7688 17.3613 13.1649 11.736 12.1497C11.736 12.1497 10.9442 13.1587 9.09859 13.1587C7.25297 13.1587 6.46099 12.1497 6.46099 12.1497C0.897128 13.1539 0.117319 14.7339 0.0147845 20.2145C0.00637669 20.6621 0.0024804 20.6856 0.000976562 20.6336C0.00131834 20.731 0.00172833 20.911 0.00172833 21.225C0.00172833 21.225 1.34097 23.9248 9.09859 23.9248C16.8561 23.9248 18.1955 21.225 18.1955 21.225C18.1955 21.0233 18.1956 20.883 18.1958 20.7876C18.1943 20.8197 18.1913 20.7574 18.1856 20.3974Z" fill="#3ABAD6"/>
</svg>
